<?xml version="1.0" encoding="UTF-8"?><svg id="Layer_1" xmlns="http://www.w3.org/2000/svg" viewBox="0 0 288 288"><defs><style>.cls-1{fill:#010101;stroke-width:0px;}</style></defs><path class="cls-1" d="M149.32,82.92c25.47,0,46.11,20.65,46.11,46.11s-20.65,46.12-46.11,46.12-46.12-20.65-46.12-46.12,20.65-46.11,46.12-46.11M149.32,81.36c-6.44,0-12.68,1.26-18.56,3.75-5.68,2.4-10.78,5.84-15.15,10.22-4.38,4.38-7.82,9.48-10.22,15.15-2.49,5.88-3.75,12.12-3.75,18.56s1.26,12.68,3.75,18.56c2.4,5.68,5.84,10.78,10.22,15.15,4.38,4.38,9.48,7.82,15.15,10.22,5.88,2.49,12.12,3.75,18.56,3.75s12.68-1.26,18.56-3.75c5.68-2.4,10.78-5.84,15.15-10.22,4.38-4.38,7.82-9.48,10.22-15.15,2.49-5.88,3.75-12.12,3.75-18.56s-1.26-12.68-3.75-18.56c-2.4-5.68-5.84-10.78-10.22-15.15-4.38-4.38-9.48-7.82-15.15-10.22-5.88-2.49-12.12-3.75-18.56-3.75h0ZM187.07,127.71c-.05-.15-.09-.3-.14-.44-.53-1.52-1.29-2.91-2.28-4.16-.08-.08-.08-.15,0-.23.99-1.02,1.75-2.22,2.28-3.59.53-1.37.8-2.77.8-4.21s-.27-2.74-.8-4.01c-.53-1.27-1.37-2.35-2.51-3.22-.11-.11-2.93.48-2.39.8.64.38,1.3.69,1.85,1.17.55.47,1.01,1.01,1.37,1.6.36.59.54,1.2.54,1.85,0,.45-.12.95-.37,1.48-.25.53-.58,1.06-1,1.59-.42.53-.89,1.04-1.42,1.54-.53.49-1.06.97-1.6,1.42-.08.04-.13.04-.17,0-1.63-1.56-3.43-2.84-5.41-3.84-1.97-1-4.08-1.51-6.32-1.51-.99,0-1.96.08-2.9.23-.64.1-1.3.26-1.96.47.03-.11.07-.22.1-.33.65-2.16.97-4.31.97-6.43,0-2.47-.45-4.81-1.37-7.03-.91-2.22-2.09-4.15-3.53-5.78-.07-.04-.07-.09,0-.17.8-.64,1.67-1.18,2.62-1.62.95-.44,1.82-.65,2.62-.65.99,0,1.83.21,2.53.63.7.42,1.27.99,1.71,1.71.29.47.52.99.71,1.55h6.27c-.35-1.55-1.04-2.79-2.08-3.71-1.57-1.4-3.82-2.11-6.75-2.11-1.59,0-3.15.27-4.67.8-1.47.51-2.82,1.25-4.05,2.19-.24-.32-.51-.62-.81-.88-1.58-1.4-3.82-2.11-6.75-2.11-.1,0-.2,0-.31,0-.09,0-.19,0-.28,0-1.27,0-2.48.22-3.64.65-.15.05-.3.09-.44.15-1.52.53-2.9,1.29-4.15,2.28-.08.07-.15.07-.23,0-1.02-.99-2.22-1.75-3.59-2.28-1.37-.53-2.77-.8-4.21-.8s-2.74.27-4.01.8c-1.27.53-2.34,1.37-3.22,2.51-.11.11.48,2.93.8,2.39.38-.64.69-1.3,1.17-1.85.47-.55,1.01-1.01,1.59-1.37.59-.36,1.2-.54,1.85-.54.45,0,.95.12,1.48.37.53.25,1.06.58,1.59,1,.53.42,1.04.89,1.54,1.42.49.53.97,1.06,1.42,1.59.04.08.04.13,0,.17-1.56,1.63-2.84,3.43-3.84,5.41-1.01,1.98-1.51,4.08-1.51,6.32,0,.99.08,1.96.23,2.9.1.64.26,1.3.47,1.96-.11-.04-.22-.07-.33-.1-2.16-.65-4.31-.97-6.43-.97-2.47,0-4.81.46-7.03,1.37-2.22.91-4.15,2.09-5.78,3.53-.04.08-.09.08-.17,0-.65-.8-1.19-1.67-1.62-2.62-.44-.95-.65-1.82-.65-2.62,0-.99.21-1.83.63-2.53.42-.7.99-1.27,1.71-1.71.47-.29.99-.52,1.55-.71v-6.27c-1.55.35-2.79,1.04-3.71,2.08-1.4,1.57-2.11,3.82-2.11,6.75,0,1.59.27,3.15.8,4.67.52,1.47,1.25,2.82,2.19,4.04-.32.24-.62.51-.88.81-1.4,1.57-2.11,3.82-2.11,6.75,0,.1,0,.2,0,.31,0,.09,0,.19,0,.28,0,1.27.22,2.48.65,3.64.05.15.09.3.14.44.53,1.52,1.29,2.9,2.28,4.16.08.07.08.15,0,.23-.99,1.02-1.75,2.22-2.28,3.59-.53,1.37-.8,2.77-.8,4.21s.27,2.74.8,4.01c.53,1.27,1.37,2.34,2.5,3.22.11.11,2.93-.48,2.39-.8-.65-.38-1.3-.69-1.85-1.17-.55-.47-1.01-1.01-1.37-1.59-.36-.59-.54-1.2-.54-1.85,0-.46.12-.95.37-1.48.25-.53.58-1.06,1-1.6.42-.53.89-1.04,1.42-1.54.53-.49,1.06-.97,1.59-1.42.08-.04.13-.04.17,0,1.63,1.56,3.44,2.84,5.41,3.84,1.97,1.01,4.08,1.51,6.32,1.51.99,0,1.96-.07,2.9-.23.64-.1,1.3-.26,1.96-.46-.03.11-.07.22-.1.33-.65,2.16-.97,4.31-.97,6.43,0,2.47.46,4.81,1.37,7.03.91,2.22,2.09,4.15,3.53,5.78.08.04.08.09,0,.17-.8.64-1.67,1.19-2.62,1.62-.95.44-1.82.65-2.62.65-.99,0-1.83-.21-2.53-.63-.7-.42-1.27-.99-1.71-1.71-.29-.48-.52-1-.71-1.55h-6.27c.35,1.55,1.04,2.79,2.08,3.71,1.58,1.4,3.82,2.11,6.75,2.11,1.59,0,3.15-.27,4.67-.8,1.48-.52,2.82-1.25,4.05-2.19.24.32.51.62.81.88,1.58,1.4,3.82,2.11,6.75,2.11.1,0,.21,0,.31,0,.09,0,.18,0,.28,0,1.27,0,2.48-.22,3.64-.65.15-.05.3-.09.44-.15,1.52-.53,2.9-1.29,4.16-2.28.08-.08.15-.08.23,0,1.02.99,2.22,1.74,3.58,2.28,1.37.53,2.77.8,4.21.8s2.74-.27,4.01-.8c1.27-.53,2.34-1.37,3.22-2.5.11-.11-.48-2.93-.8-2.39-.38.65-.69,1.3-1.17,1.85-.47.55-1.01,1-1.59,1.37-.59.36-1.21.54-1.85.54-.46,0-.95-.12-1.48-.37-.53-.25-1.06-.58-1.6-1-.53-.42-1.04-.89-1.54-1.42-.49-.53-.97-1.06-1.42-1.59-.04-.08-.04-.13,0-.17,1.56-1.63,2.84-3.44,3.84-5.41,1.01-1.97,1.51-4.08,1.51-6.32,0-.99-.07-1.96-.23-2.9-.1-.64-.26-1.3-.47-1.96.11.04.22.07.33.1,2.17.65,4.31.97,6.43.97,2.47,0,4.81-.45,7.03-1.37,2.22-.91,4.15-2.09,5.78-3.53.04-.08.1-.08.17,0,.65.8,1.19,1.67,1.62,2.62.44.95.66,1.82.66,2.62,0,.99-.21,1.83-.63,2.53-.42.7-.99,1.27-1.71,1.71-.47.29-.99.52-1.55.71v6.27c1.55-.36,2.79-1.04,3.71-2.08,1.4-1.58,2.11-3.82,2.11-6.75,0-1.59-.27-3.15-.8-4.67-.52-1.47-1.25-2.82-2.2-4.05.32-.24.62-.51.89-.81,1.4-1.58,2.11-3.82,2.11-6.75,0-.1,0-.2,0-.31,0-.09,0-.19,0-.28,0-1.27-.22-2.48-.65-3.64M183.42,124.25s-.03,0-.05.01c.02-.01.03-.01.05-.01M167.25,118.73c1.12-.53,2.17-.92,3.16-1.17.99-.25,1.97-.37,2.96-.37,1.14,0,2.26.3,3.36.91,1.1.61,2.14,1.35,3.13,2.22.04.04.04.09,0,.17-1.02.76-2.14,1.49-3.33,2.19-1.19.7-2.42,1.31-3.67,1.82-1.25.51-2.51.92-3.76,1.22-1.25.3-2.47.46-3.64.46-.65,0-1.23-.04-1.76-.11-.53-.08-1.04-.21-1.51-.4-.47-.19-.96-.43-1.45-.71-.34-.19-.7-.41-1.07-.65l1-1.65c1.04-.72,2.02-1.36,2.92-1.92,1.33-.82,2.55-1.49,3.67-2.02M162.23,109.3c.3,1.25.46,2.47.46,3.64,0,.65-.04,1.23-.11,1.76-.04.27-.09.53-.16.78-.62.27-1.26.57-1.91.91-.52.27-1.07.58-1.64.92-.6-.88-1.14-1.71-1.62-2.49-.82-1.33-1.49-2.55-2.02-3.67-.53-1.12-.92-2.17-1.17-3.16-.25-.99-.37-1.97-.37-2.96,0-1.14.3-2.26.91-3.36.61-1.1,1.35-2.14,2.22-3.13.04-.04.1-.04.17,0,.76,1.03,1.49,2.13,2.19,3.33.7,1.2,1.31,2.42,1.82,3.67.51,1.25.92,2.51,1.22,3.76M144.49,94.98s0,.03.01.05c-.01-.01-.01-.03-.01-.05M138.33,101.67c.61-1.1,1.35-2.14,2.22-3.13.04-.04.1-.04.17,0,.76,1.03,1.49,2.13,2.19,3.33.7,1.2,1.31,2.42,1.82,3.67.51,1.25.92,2.51,1.22,3.76.3,1.25.46,2.47.46,3.64,0,.65-.04,1.23-.11,1.76-.08.53-.21,1.04-.4,1.51-.19.47-.43.96-.71,1.45-.19.34-.41.7-.65,1.07l-1.65-1c-.72-1.04-1.36-2.02-1.91-2.92-.82-1.33-1.49-2.55-2.02-3.67-.53-1.12-.92-2.17-1.17-3.16-.25-.99-.37-1.97-.37-2.96,0-1.14.3-2.26.91-3.36M118.77,121.41c1.02-.76,2.13-1.49,3.33-2.19,1.2-.7,2.42-1.31,3.67-1.82,1.25-.51,2.51-.92,3.76-1.22,1.25-.3,2.47-.45,3.64-.45.65,0,1.23.04,1.76.11.27.04.52.09.78.16.27.62.57,1.26.91,1.91.27.52.58,1.07.92,1.64-.88.6-1.71,1.14-2.49,1.62-1.33.82-2.55,1.49-3.67,2.02-1.12.53-2.17.92-3.16,1.17-.99.25-1.97.37-2.96.37-1.14,0-2.26-.3-3.36-.91-1.1-.61-2.14-1.35-3.13-2.22-.04-.04-.04-.1,0-.17M115.22,133.92s.03,0,.05-.01c-.02.01-.03.01-.05.01M131.38,139.44c-1.12.53-2.17.92-3.16,1.17-.99.25-1.97.37-2.96.37-1.14,0-2.26-.3-3.36-.91-1.1-.61-2.14-1.35-3.13-2.22-.04-.04-.04-.09,0-.17,1.02-.76,2.13-1.49,3.33-2.19,1.2-.7,2.42-1.31,3.67-1.82,1.25-.51,2.51-.92,3.76-1.22,1.25-.3,2.47-.45,3.64-.45.65,0,1.23.04,1.76.11.53.08,1.03.21,1.51.4.48.19.96.43,1.45.71.34.2.7.41,1.07.65l-1,1.65c-1.04.72-2.02,1.36-2.92,1.91-1.33.82-2.55,1.49-3.67,2.02M136.4,148.87c-.3-1.25-.46-2.47-.46-3.64,0-.65.04-1.23.11-1.76.04-.27.09-.52.16-.78.62-.27,1.26-.57,1.91-.91.52-.27,1.07-.58,1.64-.92.6.88,1.14,1.71,1.62,2.49.82,1.33,1.49,2.55,2.02,3.67.53,1.12.92,2.17,1.17,3.16.25.99.37,1.97.37,2.96,0,1.14-.3,2.26-.91,3.36-.61,1.1-1.35,2.14-2.22,3.13-.04.04-.09.04-.17,0-.76-1.02-1.49-2.13-2.19-3.33-.7-1.2-1.31-2.42-1.82-3.67-.51-1.25-.92-2.51-1.22-3.76M154.15,163.19s0-.03-.01-.05c.01.02.01.03.01.05M160.3,156.5c-.61,1.1-1.35,2.14-2.22,3.13-.04.04-.1.04-.17,0-.76-1.02-1.49-2.13-2.19-3.33-.7-1.2-1.31-2.42-1.82-3.67-.51-1.25-.92-2.51-1.22-3.76-.3-1.25-.46-2.47-.46-3.64,0-.65.04-1.23.11-1.76.08-.53.21-1.03.4-1.51.19-.47.43-.96.71-1.45.2-.34.41-.69.65-1.07l1.65,1c.72,1.04,1.36,2.02,1.91,2.92.82,1.33,1.49,2.55,2.02,3.67.53,1.12.92,2.17,1.17,3.16.25.99.37,1.97.37,2.96,0,1.14-.3,2.26-.91,3.36M179.86,136.76c-1.02.76-2.14,1.49-3.33,2.19-1.19.7-2.42,1.31-3.67,1.82-1.25.51-2.51.92-3.76,1.22-1.25.3-2.47.46-3.64.46-.65,0-1.23-.04-1.76-.11-.27-.04-.52-.09-.78-.16-.27-.62-.57-1.26-.91-1.91-.27-.52-.58-1.07-.92-1.64.88-.6,1.71-1.14,2.49-1.62,1.33-.82,2.55-1.49,3.67-2.02,1.12-.53,2.17-.92,3.16-1.17.99-.25,1.97-.37,2.96-.37,1.14,0,2.26.3,3.36.91,1.1.61,2.14,1.35,3.13,2.22.04.04.04.09,0,.17M181.23,135.57c-1.63-1.56-3.43-2.84-5.41-3.84-1.97-1.01-4.08-1.51-6.32-1.51-.99,0-1.96.07-2.9.23-.95.15-1.93.42-2.93.8-1.01.38-2.06.85-3.16,1.42-.76.39-1.57.86-2.41,1.39l-.75-1.13c-.11-.19-.21-.28-.28-.28h-.97c-.08,0-.17.09-.29.28l-2.28,3.76c-.14.23-.27.45-.4.67-.16.1-.25.19-.25.26v.17c-1.25,2.19-2.16,4.22-2.71,6.07-.65,2.16-.97,4.31-.97,6.43,0,2.47.46,4.81,1.37,7.03.73,1.79,1.65,3.39,2.73,4.8-.3.54-.58,1.06-.98,1.52-.47.55-1,1-1.59,1.37-.51.31-1.05.49-1.61.53-.08,0-.17,0-.25,0-.45,0-.95-.12-1.47-.37-.53-.25-1.06-.58-1.59-1-.53-.42-1.04-.89-1.54-1.42-.49-.53-.97-1.06-1.42-1.59-.04-.08-.04-.13,0-.17,1.56-1.63,2.84-3.44,3.84-5.41,1.01-1.97,1.51-4.08,1.51-6.32,0-.99-.07-1.96-.23-2.9-.15-.95-.42-1.93-.8-2.93-.38-1.01-.85-2.06-1.42-3.16-.39-.76-.86-1.57-1.4-2.41l1.13-.75c.19-.11.29-.21.29-.29v-.97c0-.08-.09-.17-.29-.28l-3.76-2.28c-.22-.14-.45-.27-.67-.4-.1-.16-.19-.25-.26-.25h-.17c-2.19-1.25-4.22-2.16-6.08-2.71-2.16-.64-4.31-.97-6.43-.97-2.47,0-4.81.46-7.03,1.37-1.79.74-3.39,1.65-4.8,2.73-.53-.3-1.06-.58-1.52-.98-.55-.47-1.01-1-1.37-1.59-.32-.51-.49-1.05-.53-1.61,0-.09,0-.17,0-.25,0-.45.13-.95.37-1.47.25-.53.58-1.06,1-1.59.42-.53.89-1.04,1.42-1.54.53-.49,1.06-.97,1.59-1.42.08-.04.13-.04.17,0,1.63,1.56,3.44,2.84,5.41,3.84,1.97,1,4.08,1.51,6.32,1.51.99,0,1.96-.08,2.9-.23.95-.15,1.93-.42,2.93-.8,1.01-.38,2.06-.85,3.16-1.42.76-.39,1.56-.86,2.41-1.4l.75,1.13c.11.19.21.29.28.29h.97c.07,0,.17-.1.28-.29l2.28-3.76c.14-.22.27-.45.4-.67.16-.1.25-.19.25-.26v-.17c1.25-2.19,2.16-4.22,2.71-6.08.65-2.16.97-4.31.97-6.43,0-2.47-.45-4.81-1.37-7.03-.73-1.79-1.65-3.39-2.73-4.8.3-.54.58-1.06.98-1.52.47-.55,1-1.01,1.59-1.37.51-.32,1.05-.49,1.61-.53.08,0,.17,0,.25,0,.45,0,.94.12,1.47.37.53.25,1.06.58,1.59,1,.53.42,1.04.89,1.54,1.42.49.53.97,1.06,1.42,1.59.04.08.04.13,0,.17-1.56,1.63-2.84,3.43-3.84,5.41-1.01,1.98-1.51,4.08-1.51,6.32,0,.99.08,1.96.23,2.9.15.95.42,1.93.8,2.93.38,1.01.85,2.06,1.42,3.16.39.76.86,1.56,1.4,2.41l-1.13.75c-.19.12-.29.21-.29.29v.97c0,.08.1.17.29.29l3.76,2.28c.22.14.45.27.67.4.1.17.19.25.26.25h.17c2.19,1.25,4.22,2.16,6.07,2.71,2.17.65,4.31.97,6.43.97,2.47,0,4.81-.45,7.03-1.37,1.79-.74,3.39-1.65,4.8-2.73.54.3,1.06.58,1.52.98.55.47,1.01,1,1.37,1.59.32.51.49,1.05.53,1.61,0,.08,0,.17,0,.25,0,.45-.13.94-.37,1.47-.25.53-.58,1.06-1,1.59-.42.53-.89,1.04-1.42,1.54-.53.49-1.06.97-1.6,1.42-.08.04-.13.04-.17,0"/></svg>